<svg xmlns="http://www.w3.org/2000/svg" width="24" height="24" fill="none"><g filter="url(#a)"><g filter="url(#b)"><circle cx="12.001" cy="12" r="11.217" fill="url(#c)" stroke="#F59E0B" stroke-width="1.122" transform="rotate(31 12 12)"/><g fill="#fff" filter="url(#d)"><path d="M12.096 5.903a6 6 0 0 1 5.235 2.4l-1.738 1.494a3.717 3.717 0 0 0-6.765 2.547 3.72 3.72 0 0 0 6.658 1.789l1.949 1.201a5.98 5.98 0 0 1-4.183 2.515l-.308.03a6.004 6.004 0 0 1-6.336-4.951l-.046-.306a6.003 6.003 0 0 1 5.227-6.69z"/><path d="m12.096 5.903-.02-.28h-.007zm5.235 2.4.183.213.198-.171-.156-.21zm-1.738 1.494-.232.159.177.259.238-.205zM12.067 8.2l-.034-.279zm-3.239 4.145-.278.034zm4.146 3.238.034.278zm2.512-1.45.147-.238-.217-.134-.154.204zm1.949 1.202.23.161.17-.244-.253-.156zm-4.183 2.515.027.28.007-.002zm-.308.03.02.28.007-.001zm-6.336-4.951-.278.04.001.008zm-.046-.306-.278.034v.008zm5.227-6.69-.027-.279-.007.001zm.307-.03.02.28c2-.143 3.856.771 4.99 2.289l.225-.168.225-.168a6.28 6.28 0 0 0-5.48-2.512zm5.235 2.401-.183-.213-1.738 1.495.183.212.183.213 1.738-1.494zm-1.738 1.494.232-.158a4 4 0 0 0-3.792-1.719l.034.279.034.278a3.44 3.44 0 0 1 3.26 1.479zM12.067 8.2l-.034-.279a4 4 0 0 0-3.483 4.458l.278-.034.279-.034A3.44 3.44 0 0 1 12.1 8.477zm-3.239 4.145-.278.034a4 4 0 0 0 4.458 3.482l-.034-.278-.034-.279a3.44 3.44 0 0 1-3.833-2.993zm4.146 3.238.034.278a3.99 3.99 0 0 0 2.701-1.558l-.223-.17-.224-.168a3.43 3.43 0 0 1-2.323 1.34zm2.512-1.45-.147.24 1.949 1.2.147-.238.147-.239-1.95-1.2zm1.949 1.202-.23-.16a5.7 5.7 0 0 1-3.987 2.396l.034.279.034.278a6.27 6.27 0 0 0 4.378-2.632zm-4.183 2.515-.027-.28-.308.03.027.28.027.279.308-.03zm-.308.03-.02-.28a5.723 5.723 0 0 1-6.04-4.72l-.276.049-.277.048a6.284 6.284 0 0 0 6.633 5.182zm-6.336-4.951.277-.042-.045-.305-.278.041-.277.042.045.305zm-.046-.306.279-.034a5.723 5.723 0 0 1 4.982-6.377l-.034-.279-.034-.278a6.284 6.284 0 0 0-5.471 7.002zm5.227-6.69.027.28.307-.03-.027-.28-.027-.278-.307.03z"/></g></g></g><defs><filter id="a" width="24" height="24" x="0" y="0" color-interpolation-filters="sRGB" filterUnits="userSpaceOnUse"><feFlood flood-opacity="0" result="BackgroundImageFix"/><feBlend in="SourceGraphic" in2="BackgroundImageFix" result="shape"/><feColorMatrix in="SourceAlpha" result="hardAlpha" values="0 0 0 0 0 0 0 0 0 0 0 0 0 0 0 0 0 0 127 0"/><feOffset/><feGaussianBlur stdDeviation="9.333"/><feComposite in2="hardAlpha" k2="-1" k3="1" operator="arithmetic"/><feColorMatrix values="0 0 0 0 1 0 0 0 0 0.977083 0 0 0 0 0.895833 0 0 0 0.25 0"/><feBlend in2="shape" result="effect1_innerShadow_496_7469"/></filter><filter id="b" width="23.559" height="23.559" x=".221" y=".22" color-interpolation-filters="sRGB" filterUnits="userSpaceOnUse"><feFlood flood-opacity="0" result="BackgroundImageFix"/><feBlend in="SourceGraphic" in2="BackgroundImageFix" result="shape"/><feColorMatrix in="SourceAlpha" result="hardAlpha" values="0 0 0 0 0 0 0 0 0 0 0 0 0 0 0 0 0 0 127 0"/><feOffset/><feGaussianBlur stdDeviation="8.288"/><feComposite in2="hardAlpha" k2="-1" k3="1" operator="arithmetic"/><feColorMatrix values="0 0 0 0 1 0 0 0 0 0.977083 0 0 0 0 0.895833 0 0 0 0.25 0"/><feBlend in2="shape" result="effect1_innerShadow_496_7469"/></filter><filter id="d" width="16.406" height="17.375" x="3.833" y="3.203" color-interpolation-filters="sRGB" filterUnits="userSpaceOnUse"><feFlood flood-opacity="0" result="BackgroundImageFix"/><feColorMatrix in="SourceAlpha" result="hardAlpha" values="0 0 0 0 0 0 0 0 0 0 0 0 0 0 0 0 0 0 127 0"/><feOffset/><feGaussianBlur stdDeviation="1.202"/><feComposite in2="hardAlpha" operator="out"/><feColorMatrix values="0 0 0 0 0.79751 0 0 0 0 0.382805 0 0 0 0 0 0 0 0 1 0"/><feBlend in2="BackgroundImageFix" result="effect1_dropShadow_496_7469"/><feBlend in="SourceGraphic" in2="effect1_dropShadow_496_7469" result="shape"/></filter><linearGradient id="c" x1="32.339" x2="31.086" y1="5.014" y2="28.852" gradientUnits="userSpaceOnUse"><stop stop-color="#FFE035"/><stop offset=".248" stop-color="#FFAA46"/><stop offset=".529" stop-color="#FF9D0B" stop-opacity=".86"/><stop offset="1" stop-color="#EAC91C"/></linearGradient></defs></svg>