<svg xmlns="http://www.w3.org/2000/svg" width="24" height="24" fill="none"><path fill="#fff" d="M21 9a1 1 0 0 0-1-1h-1.997a3 3 0 0 1-2.64-1.575l-.486-.9a1 1 0 0 0-.88-.525h-3.993a1 1 0 0 0-.879.523l-.49.905A3 3 0 0 1 5.998 8H4a1 1 0 0 0-1 1v9a1 1 0 0 0 1 1h16a1 1 0 0 0 1-1zm2 9a3 3 0 0 1-3 3H4a3 3 0 0 1-3-3V9a3 3 0 0 1 3-3h1.997a1 1 0 0 0 .88-.524l.488-.904.103-.175A3 3 0 0 1 10.004 3h3.993a3 3 0 0 1 2.64 1.575l.486.9a1 1 0 0 0 .88.525H20a3 3 0 0 1 3 3z"/><path fill="#fff" d="M14 13a2 2 0 1 0-4 0 2 2 0 0 0 4 0m2 0a4 4 0 1 1-8 0 4 4 0 0 1 8 0"/></svg>